<svg width="59" height="50" viewBox="0 0 59 50" fill="none" xmlns="http://www.w3.org/2000/svg">
<g clip-path="url(#clip0_8_480)">
<path d="M0.179029 42.0902C0.179029 36.2935 0.146169 30.4942 0.141846 24.7001C0.141846 20.9732 1.63957 17.1934 4.39634 14.6582C7.86912 11.4643 13.2305 10.8498 17.5723 12.4073C18.821 12.8554 19.9936 13.4985 21.103 14.217C21.4212 14.4216 22.1407 13.7672 22.3647 13.5999C22.8941 13.1961 23.4666 12.8525 24.0717 12.5754C28.129 10.7449 33.039 11.1349 36.6734 13.7412C38.5698 15.1011 40.0623 16.9264 40.9167 19.1071C41.8394 21.4638 42.0409 24.0267 42.0409 26.5367C42.0409 31.7207 42.0236 36.9054 42.0236 42.0902H32.815C32.815 41.2304 32.815 40.3709 32.815 39.5117C32.815 37.5997 32.815 35.688 32.815 33.7765C32.815 31.8119 32.815 29.8459 32.815 27.8784C32.815 27.3619 32.815 26.8456 32.815 26.3296C32.815 24.2113 32.2884 21.3502 29.7884 20.9558C29.5237 20.915 29.2564 20.8927 28.9885 20.8891C27.8644 20.8657 26.9668 21.6198 26.4428 22.568C25.8815 23.5838 25.8141 24.6135 25.8219 25.7428C25.8219 26.0124 25.8219 26.281 25.8219 26.5506V42.0902H16.3824C16.3729 41.9628 16.4689 29.7228 16.481 28.6845C16.5173 26.08 17.1348 21.781 13.9551 20.9845C11.8201 20.4488 9.84244 22.0419 9.81477 24.1229C9.73522 30.1137 9.82082 36.0994 9.82082 42.0902H0.179029Z" fill="#15945F"/>
<path d="M43.5455 11.7442C46.9966 10.9892 50.7228 11.6575 53.63 13.7376C55.5264 15.0975 57.0189 16.9229 57.8724 19.1036C58.7951 21.4602 58.9966 24.0231 58.9966 26.5332C58.9966 31.7171 58.9801 36.9019 58.9801 42.0867H49.7716C49.7716 41.2269 49.7716 40.3674 49.7716 39.5082C49.7716 37.5961 49.7716 35.6844 49.7716 33.773C49.7716 32.3091 49.7871 30.8452 49.7889 29.3804C49.7889 27.9512 49.8684 26.4855 49.7024 25.0632C49.4853 23.2327 48.6405 21.117 46.5452 20.9029C45.3424 20.7816 44.3713 21.5738 43.5446 22.3495L43.5455 11.7442Z" fill="#FBDA2C"/>
<path d="M21.0995 0H41.8679V19.3186C41.8679 19.3186 39.9136 12.4584 32.8271 11.3247V8.82939H21.0995V0Z" fill="#EC4624"/>
<path d="M54.4083 0H43.5455V8.8736H54.4083V0Z" fill="#EC4624"/>
<path d="M12.971 9.62072C12.0329 9.62089 11.1157 9.34219 10.3356 8.81988C9.55549 8.29757 8.94742 7.5551 8.58832 6.68638C8.22923 5.81766 8.13522 4.86171 8.31821 3.93944C8.50119 3.01717 8.95294 2.17001 9.61633 1.50509C10.2797 0.84018 11.1249 0.387385 12.0451 0.203978C12.9652 0.0205706 13.919 0.114789 14.7857 0.474717C15.6524 0.834645 16.3932 1.44411 16.9143 2.22604C17.4354 3.00797 17.7134 3.92723 17.7133 4.86756C17.7119 6.12775 17.2118 7.33594 16.3228 8.22703C15.4337 9.11812 14.2283 9.61934 12.971 9.62072ZM12.971 0.715918C12.1526 0.715747 11.3526 0.958836 10.672 1.41444C9.99144 1.87005 9.46095 2.51771 9.14764 3.27552C8.83433 4.03333 8.75227 4.86724 8.91183 5.6718C9.07139 6.47635 9.4654 7.21541 10.044 7.79551C10.6227 8.37561 11.36 8.77069 12.1626 8.93079C12.9653 9.09088 13.7973 9.0088 14.5534 8.69493C15.3096 8.38105 15.9558 7.84948 16.4105 7.16744C16.8652 6.4854 17.1079 5.68353 17.1079 4.86323C17.1068 3.76379 16.6706 2.70971 15.8951 1.93221C15.1195 1.15471 14.068 0.717295 12.971 0.715918Z" fill="#07519C"/>
<path d="M59 44.9089V44.7234H0V50H59V49.8137H12.8846V44.9089H59ZM4.60817 49.2018H3.46932V48.121L3.12342 49.2018H2.3123L1.96641 48.121V49.2018H0.824957V45.6395H2.19124L2.71786 47.2863L3.24535 45.6395H4.61077L4.60817 49.2018ZM8.3862 46.6016H7.29317V49.2018H6.15172V46.6016H5.05524V45.6395H8.38793L8.3862 46.6016ZM12.0873 49.2018H10.9899L9.97472 47.5411V49.2018H8.83327V45.6395H9.93321L10.9484 47.3002V45.6395H12.0899L12.0873 49.2018Z" fill="#07519C"/>
<path d="M13.7562 45.6169V49.1792H14.7619V45.6169H13.7562Z" fill="#07519C"/>
<path d="M17.9 45.6169V47.6269L16.6703 45.6169H15.6664V49.1792H16.6712V47.1693L17.9 49.1792H18.9048V45.6169H17.9Z" fill="#07519C"/>
<path d="M20.8211 46.6701C20.8211 46.5375 21.0442 46.4517 21.3944 46.4517C21.7431 46.4512 22.0815 46.5694 22.3543 46.7871L22.8013 46.1206C22.522 45.8155 21.928 45.5355 21.2932 45.5355C20.3636 45.5355 19.7592 45.9628 19.7592 46.6241C19.7592 48.0646 21.8769 47.6642 21.8769 48.0906C21.8769 48.2432 21.6132 48.3446 21.2016 48.3446C20.7986 48.3419 20.4077 48.206 20.0895 47.958L19.6425 48.6237C19.952 48.96 20.6075 49.2599 21.3036 49.2599C22.2989 49.2599 22.9388 48.7814 22.9388 48.0464C22.9388 46.7108 20.8211 47.093 20.8211 46.6701Z" fill="#07519C"/>
<path d="M23.4464 45.6169V46.4308H24.6043V49.1792H25.61V46.4308H26.7679V45.6169H23.4464Z" fill="#07519C"/>
<path d="M27.4329 45.6169V49.1792H28.4385V45.6169H27.4329Z" fill="#07519C"/>
<path d="M29.0992 45.6169V46.4308H30.2571V49.1792H31.2627V46.4308H32.4198V45.6169H29.0992Z" fill="#07519C"/>
<path d="M35.2085 45.6169V47.6425C35.2085 48.0499 34.9595 48.3445 34.6197 48.3445C34.2798 48.3445 34.0299 48.0499 34.0299 47.6425V45.6169H33.0251V47.6425C33.0251 48.5786 33.6953 49.2607 34.6197 49.2607C35.5441 49.2607 36.2142 48.5786 36.2142 47.6425V45.6169H35.2085Z" fill="#07519C"/>
<path d="M36.8187 45.6169V46.4308H37.9765V49.1792H38.9814V46.4308H40.1392V45.6169H36.8187Z" fill="#07519C"/>
<path d="M43.6899 46.4308V45.6169H40.8051V49.1792H43.6899V48.3636H41.8108V47.8037H43.4867V46.989H41.8108V46.4308H43.6899Z" fill="#07519C"/>
<path d="M46.4847 48.4096V45.7349H45.5067V49.2018H48.3136V48.4087L46.4847 48.4096Z" fill="#07519C"/>
<path d="M49.3417 48.3402C49.2489 48.3402 49.1581 48.3678 49.0809 48.4195C49.0037 48.4712 48.9435 48.5447 48.9079 48.6307C48.8724 48.7167 48.8631 48.8114 48.8812 48.9027C48.8993 48.994 48.9441 49.0778 49.0097 49.1436C49.0754 49.2095 49.1591 49.2543 49.2501 49.2724C49.3412 49.2906 49.4356 49.2813 49.5214 49.2457C49.6072 49.21 49.6806 49.1497 49.7322 49.0723C49.7838 48.9949 49.8113 48.9039 49.8113 48.8108C49.8104 48.6863 49.7606 48.5671 49.6728 48.4791C49.5849 48.391 49.466 48.3411 49.3417 48.3402Z" fill="#07519C"/>
<path d="M51.5806 48.4096V45.7349H50.6017V49.2018H53.4086V48.4087L51.5806 48.4096Z" fill="#07519C"/>
<path d="M54.4368 48.3402C54.3439 48.3402 54.2531 48.3678 54.1759 48.4195C54.0987 48.4712 54.0385 48.5447 54.003 48.6307C53.9674 48.7167 53.9581 48.8114 53.9762 48.9027C53.9944 48.994 54.0391 49.0778 54.1048 49.1436C54.1704 49.2095 54.2541 49.2543 54.3452 49.2724C54.4363 49.2906 54.5307 49.2813 54.6165 49.2457C54.7023 49.21 54.7756 49.1497 54.8272 49.0723C54.8788 48.9949 54.9063 48.9039 54.9063 48.8108C54.9054 48.6863 54.8557 48.5671 54.7678 48.4791C54.6799 48.391 54.561 48.3411 54.4368 48.3402Z" fill="#07519C"/>
<path d="M57.4617 48.3896C56.9333 48.3896 56.5917 48.0282 56.5917 47.4683C56.5917 46.9084 56.9333 46.5435 57.4617 46.5435C57.8326 46.5435 58.0601 46.6926 58.3169 46.9205L58.7492 46.2713C58.4475 45.8943 57.9338 45.6516 57.3605 45.6516C56.3124 45.6516 55.5515 46.4152 55.5515 47.4648C55.5515 48.5144 56.3124 49.278 57.3605 49.278C57.9338 49.278 58.4475 49.0353 58.7492 48.6592L58.3169 48.01C58.0601 48.2414 57.8326 48.3896 57.4617 48.3896Z" fill="#07519C"/>
</g>
<defs>
<clipPath id="clip0_8_480">
<rect width="59" height="50" fill="white"/>
</clipPath>
</defs>
</svg>
