<svg width="16" height="16" viewBox="0 0 16 16" fill="none" xmlns="http://www.w3.org/2000/svg">
<g id="24 Language">
<path id="Vector" d="M3.14776 14.2857C3.08201 14.2852 3.01846 14.2619 2.96783 14.22C1.68188 13.1794 0.750071 11.7656 0.300751 10.1733C-0.148569 8.58096 -0.0932951 6.88842 0.45896 5.32881C1.01122 3.7692 2.03328 2.41926 3.38438 1.46491C4.73548 0.510567 6.34914 -0.00122314 8.00309 3.47908e-05C9.22613 -0.0035901 10.4334 0.276092 11.5303 0.817174C11.5981 0.850922 11.6497 0.910203 11.6738 0.981992C11.6979 1.05378 11.6925 1.1322 11.6589 1.20003C11.6424 1.23384 11.6195 1.26408 11.5913 1.289C11.5631 1.31392 11.5303 1.33303 11.4948 1.34524C11.4592 1.35745 11.4216 1.36252 11.3841 1.36015C11.3466 1.35779 11.3099 1.34804 11.2762 1.33146C9.61239 0.514143 7.70324 0.348824 5.92383 0.867987C4.14443 1.38715 2.62344 2.55326 1.65975 4.13716C0.724992 5.67393 0.379436 7.49781 0.687239 9.27017C0.995041 11.0425 1.93529 12.6429 3.33341 13.7743C3.36254 13.798 3.38669 13.8273 3.40447 13.8605C3.42225 13.8936 3.43332 13.93 3.43703 13.9674C3.44075 14.0048 3.43704 14.0426 3.42612 14.0786C3.4152 14.1146 3.39728 14.1481 3.37339 14.1771C3.3465 14.2112 3.3122 14.2386 3.27311 14.2575C3.23401 14.2763 3.19115 14.2859 3.14776 14.2857ZM8.00309 16C6.72701 16.0034 5.46896 15.6986 4.33589 15.1114C4.26848 15.0765 4.21766 15.0163 4.19463 14.944C4.1716 14.8717 4.17824 14.7931 4.21308 14.7257C4.24792 14.6582 4.30812 14.6074 4.38043 14.5844C4.45274 14.5613 4.53123 14.568 4.59865 14.6028C6.03792 15.346 7.68062 15.5981 9.27639 15.3206C10.8722 15.0431 12.3335 14.2513 13.4376 13.0658C14.5418 11.8804 15.2282 10.3663 15.3923 8.75431C15.5563 7.14235 15.1891 5.52093 14.3464 4.13716C13.9027 3.41093 13.3387 2.76554 12.6785 2.2286C12.6201 2.18104 12.5828 2.11233 12.5748 2.03742C12.5667 1.9625 12.5886 1.88745 12.6356 1.8286C12.6592 1.79925 12.6884 1.77485 12.7214 1.7568C12.7544 1.73875 12.7907 1.72741 12.8281 1.72342C12.8655 1.71944 12.9034 1.7229 12.9394 1.73359C12.9755 1.74429 13.0091 1.76201 13.0384 1.78574C13.7485 2.36359 14.3551 3.0583 14.832 3.84002C15.57 5.05285 15.9721 6.44034 15.997 7.86002C16.0218 9.2797 15.6685 10.6804 14.9733 11.9183C14.2781 13.1563 13.2661 14.1868 12.0411 14.9041C10.8162 15.6214 9.42247 15.9996 8.00309 16Z" fill="black"/>
<path id="Vector_2" d="M7.71733 15.7143C7.64655 15.7141 7.57835 15.6876 7.52597 15.64C6.45329 14.6777 5.63586 13.4644 5.14686 12.1086C4.60448 10.8055 4.31375 9.41139 4.29004 8.00003C4.29318 6.58553 4.58473 5.18654 5.14686 3.88862C5.68304 2.55816 6.49372 1.3558 7.52597 0.36006C7.58275 0.314446 7.65481 0.292252 7.7274 0.298015C7.8 0.303779 7.86765 0.337066 7.91652 0.391069C7.9654 0.445072 7.99181 0.515714 7.99035 0.588549C7.9889 0.661384 7.95968 0.730911 7.90869 0.782916C6.93328 1.72213 6.16646 2.85624 5.6581 4.11147C5.13187 5.34027 4.86077 6.66322 4.86125 8.00003C4.87959 9.33607 5.15095 10.6565 5.66096 11.8914C6.12263 13.1695 6.89511 14.3124 7.90869 15.2171C7.9513 15.2559 7.98121 15.3066 7.99449 15.3627C8.00778 15.4187 8.00381 15.4775 7.98312 15.5312C7.96242 15.585 7.92597 15.6312 7.87854 15.6639C7.83111 15.6966 7.77491 15.7141 7.71733 15.7143Z" fill="black"/>
<path id="Vector_3" d="M8.28886 15.7142C8.23127 15.7141 8.17508 15.6965 8.12765 15.6638C8.08021 15.6312 8.04376 15.5849 8.02307 15.5312C8.00238 15.4774 7.99841 15.4186 8.01169 15.3626C8.02498 15.3065 8.05489 15.2558 8.0975 15.2171C9.11108 14.3123 9.88355 13.1694 10.3452 11.8914C10.8552 10.6564 11.1266 9.33599 11.1449 7.99995C11.1454 6.66315 10.8743 5.34019 10.3481 4.1114C9.83973 2.85616 9.07291 1.72205 8.0975 0.782839C8.06715 0.758454 8.04209 0.728119 8.02389 0.693697C8.00568 0.659276 7.9947 0.621494 7.99162 0.582672C7.98854 0.54385 7.99342 0.504808 8.00598 0.467943C8.01853 0.431079 8.03848 0.397171 8.06461 0.368302C8.09074 0.339433 8.12249 0.316213 8.15792 0.300066C8.19334 0.28392 8.23169 0.275189 8.27062 0.27441C8.30954 0.273631 8.34821 0.28082 8.38425 0.295536C8.4203 0.310251 8.45295 0.332183 8.48021 0.359983C9.51761 1.35434 10.3332 2.5568 10.8736 3.88854C11.4308 5.18749 11.7175 6.58644 11.7161 7.99995C11.6924 9.41131 11.4017 10.8054 10.8593 12.1085C10.3671 13.4655 9.54564 14.679 8.46879 15.6399C8.41936 15.685 8.35568 15.7113 8.28886 15.7142Z" fill="black"/>
<path id="Vector_4" d="M15.7143 8.28576H0.291467C0.215719 8.28576 0.143074 8.25566 0.089512 8.20208C0.0359501 8.1485 0.00585937 8.07583 0.00585938 8.00005C0.00585937 7.92428 0.0359501 7.8516 0.089512 7.79802C0.143074 7.74444 0.215719 7.71434 0.291467 7.71434H15.7143C15.79 7.71434 15.8627 7.74444 15.9162 7.79802C15.9698 7.8516 15.9999 7.92428 15.9999 8.00005C15.9999 8.07583 15.9698 8.1485 15.9162 8.20208C15.8627 8.25566 15.79 8.28576 15.7143 8.28576ZM14.5718 4.28578H1.4339C1.35815 4.28578 1.2855 4.25568 1.23194 4.2021C1.17838 4.14852 1.14829 4.07584 1.14829 4.00007C1.14829 3.92429 1.17838 3.85162 1.23194 3.79804C1.2855 3.74446 1.35815 3.71436 1.4339 3.71436H14.5718C14.6476 3.71436 14.7202 3.74446 14.7738 3.79804C14.8274 3.85162 14.8575 3.92429 14.8575 4.00007C14.8575 4.07584 14.8274 4.14852 14.7738 4.2021C14.7202 4.25568 14.6476 4.28578 14.5718 4.28578ZM14.5718 12.2857H1.4339C1.35815 12.2857 1.2855 12.2556 1.23194 12.2021C1.17838 12.1485 1.14829 12.0758 1.14829 12C1.14829 11.9243 1.17838 11.8516 1.23194 11.798C1.2855 11.7444 1.35815 11.7143 1.4339 11.7143H14.5718C14.6476 11.7143 14.7202 11.7444 14.7738 11.798C14.8274 11.8516 14.8575 11.9243 14.8575 12C14.8575 12.0758 14.8274 12.1485 14.7738 12.2021C14.7202 12.2556 14.6476 12.2857 14.5718 12.2857Z" fill="black"/>
<path id="Vector_5" d="M8.00289 15.7142C7.92714 15.7142 7.8545 15.6841 7.80094 15.6305C7.74738 15.5769 7.71729 15.5042 7.71729 15.4284V0.571358C7.71729 0.495582 7.74738 0.42291 7.80094 0.369328C7.8545 0.315746 7.92714 0.285645 8.00289 0.285645C8.07864 0.285645 8.15129 0.315746 8.20485 0.369328C8.25841 0.42291 8.2885 0.495582 8.2885 0.571358V15.4284C8.2885 15.5042 8.25841 15.5769 8.20485 15.6305C8.15129 15.6841 8.07864 15.7142 8.00289 15.7142Z" fill="black"/>
</g>
</svg>
