<svg width="25" height="24" viewBox="0 0 25 24" fill="none" xmlns="http://www.w3.org/2000/svg">
<g id="love">
<path id="Vector" d="M20.6598 4.61C19.5981 3.548 18.1905 2.90232 16.693 2.79038C15.1955 2.67843 13.7076 3.10766 12.4998 4C11.2274 3.05363 9.64378 2.62451 8.06771 2.79903C6.49164 2.97356 5.04023 3.73877 4.00576 4.94058C2.97129 6.14239 2.43061 7.69152 2.49259 9.27601C2.55457 10.8605 3.21461 12.3627 4.33979 13.48L11.7898 20.93C11.8828 21.0237 11.9934 21.0981 12.1152 21.1489C12.2371 21.1997 12.3678 21.2258 12.4998 21.2258C12.6318 21.2258 12.7625 21.1997 12.8844 21.1489C13.0062 21.0981 13.1168 21.0237 13.2098 20.93L20.6598 13.48C21.2424 12.8977 21.7047 12.2063 22.02 11.4454C22.3354 10.6844 22.4977 9.86873 22.4977 9.045C22.4977 8.22127 22.3354 7.40561 22.02 6.64463C21.7047 5.88365 21.2424 5.19227 20.6598 4.61ZM19.2498 12.07L12.4998 18.81L5.74979 12.07C5.15496 11.4727 4.74976 10.713 4.58502 9.88634C4.42027 9.05963 4.50332 8.20268 4.82374 7.42299C5.14416 6.6433 5.68769 5.97559 6.38613 5.50362C7.08458 5.03165 7.90685 4.77644 8.74979 4.77C9.8759 4.77276 10.9549 5.22233 11.7498 6.02C11.8428 6.11373 11.9534 6.18812 12.0752 6.23889C12.1971 6.28966 12.3278 6.3158 12.4598 6.3158C12.5918 6.3158 12.7225 6.28966 12.8444 6.23889C12.9662 6.18812 13.0768 6.11373 13.1698 6.02C13.9881 5.31088 15.0453 4.93914 16.1273 4.98002C17.2094 5.0209 18.2355 5.47134 18.998 6.24019C19.7605 7.00903 20.2024 8.03884 20.2343 9.12119C20.2662 10.2035 19.8857 11.2576 19.1698 12.07H19.2498Z" fill="#353535"/>
</g>
</svg>
