<svg width="378" height="356" viewBox="0 0 378 356" fill="none" xmlns="http://www.w3.org/2000/svg">
<path d="M199.802 167.029C203.829 166.673 206.033 174.137 199.802 178.006C194.298 182.188 181.515 179.113 177.825 167.029C173.456 155.648 181.843 137.639 199.802 134.099C217.071 129.589 240.367 143.207 243.759 167.029C248.427 190.111 229.524 218.713 199.802 221.913C170.805 226.762 136.925 202.551 133.868 167.029C128.866 132.196 158.344 93.0909 199.802 90.1922C240.535 85.034 284.994 119.756 287.715 167.029C293.052 213.604 252.99 263.247 199.802 265.819C147.306 271.297 92.3262 226.045 89.9122 167.029C84.2746 108.758 134.851 48.5147 199.802 46.2854C264.027 40.4729 329.592 96.2965 331.67 167.029C337.643 237.05 276.489 307.802 199.802 309.726C123.842 315.838 47.7073 249.51 45.9561 167.029C39.6488 85.2852 111.388 3.96713 199.802 2.37862C287.526 -4.07473 374.182 72.8314 375.627 167.029C382.241 260.487 299.98 352.378 199.802 353.633C100.35 360.393 3.10933 272.963 2 167.029" stroke="#07519C" stroke-opacity="0.02" stroke-width="3" stroke-linecap="round"/>
</svg>
