<svg width="29" height="29" viewBox="0 0 29 29" fill="none" xmlns="http://www.w3.org/2000/svg">
<path id="Soft Star" d="M14.113 0.343739C14.1675 -0.11458 14.8325 -0.11458 14.887 0.343739L15.3432 4.18862C15.9323 9.1534 19.8466 13.0677 24.8113 13.6568L28.6562 14.113C29.1146 14.1675 29.1146 14.8325 28.6562 14.887L24.8113 15.3432C19.8466 15.9323 15.9323 19.8466 15.3432 24.8113L14.887 28.6562C14.8325 29.1146 14.1675 29.1146 14.113 28.6562L13.6568 24.8113C13.0677 19.8466 9.1534 15.9323 4.18862 15.3432L0.343739 14.887C-0.11458 14.8325 -0.11458 14.1675 0.343739 14.113L4.18862 13.6568C9.1534 13.0677 13.0677 9.1534 13.6568 4.18862L14.113 0.343739Z" fill="#017AFD"/>
</svg>
