<svg width="129" height="8" viewBox="0 0 129 8" fill="none" xmlns="http://www.w3.org/2000/svg">
<path id="Heavy Waves" d="M1 1C7.35224 1 7.35224 7 13.7045 7C20.0567 7 20.0567 1 26.4089 1C32.7612 1 32.7612 7 39.0985 7C45.451 7 45.451 1 51.7881 1C58.1405 1 58.1405 7 64.4776 7C70.83 7 70.83 1 77.1819 1C83.5343 1 83.5343 7 89.8867 7C96.2386 7 96.2386 1 102.591 1C108.943 1 108.943 7 115.296 7C121.648 7 121.648 1 128 1" stroke="#FBDA2C" stroke-width="2" stroke-miterlimit="10" stroke-linecap="round"/>
</svg>
